<?xml version="1.0" encoding="utf-8"?>
<svg version="1.1" xmlns:xlink="http://www.w3.org/1999/xlink" width="11px" height="16px" xmlns="http://www.w3.org/2000/svg">
  <g transform="matrix(1 0 0 1 -937 -3266 )">
    <path d="M 7.470571428571428 15.779199999999998  L 7.486285714285715 15.7728  C 7.043142857142857 16.1184  6.860857142857143 16  7.178285714285716 15.6576  C 7.495714285714286 15.315199999999999  9.196 12.8736  6.461714285714287 11.116800000000001  C 5.782857142857144 10.569600000000001  5.352285714285716 9.756800000000002  5.267428571428573 8.8672  C 5.267428571428573 8.521600000000001  5.333428571428573 8.368  5.097714285714287 8.4864  C 4.862000000000001 8.608  0.3677142857142868 10.963200000000002  4.08257142857143 15.657599999999997  C 4.3245714285714305 15.964799999999999  4.2208571428571435 16.0384  3.7808571428571445 15.8112  C -6.361142857142857 9.7376  7.090285714285715 0.1568  7.297714285714285 0.04479999999999999  C 7.505142857142856 -0.06720000000000001  7.435999999999999 0.1184  7.266285714285713 0.5055999999999999  C 6.958285714285714 1.1711999999999998  6.175714285714285 4.9344  8.259428571428572 6.4576  C 10.343142857142858 7.984  13.416857142857143 11.116800000000001  7.470571428571428 15.779199999999998  Z " fill-rule="nonzero" fill="#3a8eff" stroke="none" transform="matrix(1 0 0 1 937 3266 )" />
  </g>
</svg>