<?xml version="1.0" encoding="utf-8"?>
<svg version="1.1" xmlns:xlink="http://www.w3.org/1999/xlink" width="20px" height="20px" xmlns="http://www.w3.org/2000/svg">
  <g transform="matrix(1 0 0 1 -1358 -3540 )">
    <path d="M 0.003076649315419706 8.999999493206168  C 0.003076649315419706 4.058854687394854  4.094121014915782 0.05279929486173603  9.14179104477612 0.05113636363636364  C 13.699409411789187 0.05137113978125655  17.56090787986194 3.3372218893580228  18.19552237931436 7.755194810901987  C 16.79615314130021 7.579798400424559  15.39300394932686 8.05114197012554  14.398507465601678 9.030681818181817  C 13.537589814754641 9.868260933826438  13.05539254705499 11.008583742946207  13.059701492537313 12.196753238192471  C 13.059701492537313 13.39480518909801  13.534328366954291 14.51396102183949  14.398507465601678 15.359902594549004  C 14.589552247551307 15.546915587269176  14.794029850746268 15.714935056374289  15.010447755363801 15.86396104181463  C 13.365584392600057 17.210872825217955  11.289352016968815 17.948863129569805  9.14486769409154 17.948863129569805  C 4.095995913921974 17.948863129569805  0.003076649315419706 13.942320407885143  0.003076649315419706 8.999999493206168  Z M 17.62985075501399 9  L 17.631343274836755 9  C 18.502985074626864 9  19.322388048041045 9.33165585271662  19.93880597889459 9.93506494362571  C 20.556716429570894 10.539935076349431  20.895522388059703 11.342045454545453  20.895522388059703 12.193831174538353  C 20.898778160561545 13.041984992611718  20.554734286409914 13.856053145689057  19.94029849871735 14.454058447265627  C 19.322388048041045 15.057467538174715  18.502985074626867 15.389123390891333  17.631343274836755 15.389123370916193  C 16.765002740576108 15.391820599405685  15.933569478934782 15.055112433185576  15.322388050956155 14.454058447265629  C 14.707773583871312 13.856650846540449  14.363210138568261 13.043151394454512  14.36567164179104 12.195292216352982  C 14.36567164179104 11.340584432705963  14.704477620685633 10.538474034534802  15.320895531133393 9.93506494362571  C 15.938805981809699 9.33165585271662  16.75820895522388 9  17.62985075501399 9  Z M 11.104477609025187 14.592857140003549  L 11.104477609025187 13.952922083629261  L 7.183582080806903 13.952922083629261  L 7.183582080806903 14.592857140003549  L 11.104477609025187 14.592857140003549  Z M 18.94179104477612 10.509253238192471  L 18.94179104477612 10.507792216352982  L 16.31791044484608 10.507792216352982  C 16.302016051853553 10.507294618288256  16.286712955271746 10.513714676893311  16.276119400069962 10.525324678178265  L 16.264179098647386 10.544318181818182  L 16.261194038596084 10.567694810901989  L 16.261194038596084 10.6875  C 16.261194038596084 10.705032461825285  16.26567165928172 10.719642859996451  16.276119400069962 10.731331174538354  L 16.29552238222948 10.743019489080258  L 16.317910444846085 10.747402594549007  L 16.489552244636194 10.747402594549007  C 16.489552244636194 11.073214280007104  16.552238811800375 11.361038958185372  16.67910448635728 11.609415587269176  C 16.80597016091418 11.860714280007102  16.96268657882463 12.050649356356535  17.15373134036847 12.183603901811077  C 16.96417909864739 12.315097405450993  16.805970140508393 12.506493503639916  16.67910448635728 12.756331174538357  C 16.581116587402008 12.952917059685083  16.52042965718821 13.16529421476268  16.500000005830223 13.38311687455611  L 16.489552244636194 13.619805189098015  L 16.31791044484608 13.619805189098011  C 16.30225156222406 13.61893492921042  16.286985915934515 13.624805586895603  16.276119400069962 13.635876629083807  L 16.264179098647386 13.654870132723723  L 16.261194038596084 13.67970778364702  L 16.261194038596084 13.799512992720173  C 16.261194038596084 13.817045454545456  16.26567165928172 13.83019481090199  16.276119400069962 13.843344147283382  L 16.29552238222948 13.855032461825287  L 16.317910444846085 13.859415587269178  L 18.94179104477612 13.859415587269178  C 18.958208946478546 13.859415587269178  18.971641788129666 13.853571439985796  18.983582089552243 13.841883125443895  L 18.995522390974813 13.82288960182884  L 18.99999999125467 13.799512992720173  L 18.99999999125467 13.67970778364702  C 19.00080787197139 13.66352518146167  18.994884846436957 13.64771237831623  18.983582089552243 13.635876629083807  L 18.96567164762127 13.624188314541906  L 18.94179104477612 13.619805189098015  L 18.771641785214552 13.619805189098015  C 18.771641785214552 13.293993503639918  18.70746267782183 13.006168825461648  18.580597023670705 12.757792216352982  C 18.47373433918861 12.530672997676136  18.3105825154972 12.333297173193204  18.105970149253732 12.18360390181108  C 18.29552239097481 12.052110398171166  18.455223889342353 11.860714299982247  18.58059702367071 11.61087662908381  C 18.676119414645523 11.422402594549007  18.73582090135261 11.213474034534803  18.75970148379198 10.984090909090911  L 18.771641785214552 10.747402594549007  L 18.94179104477612 10.747402594549007  C 18.958208946478546 10.747402594549007  18.971641788129666 10.741558447265627  18.983582089552243 10.729870132723724  L 18.995522390974813 10.710876629083806  L 18.99999999125467 10.6875  L 18.99999999125467 10.567694810901989  C 19.00080787756877 10.551512201908691  18.994884851641416 10.535699390507908  18.983582089552243 10.523863636363638  C 18.97245279611492 10.513326875445031  18.957221172861637 10.508001809232502  18.94179104477612 10.509253238192471  Z M 11.104477609025187 13.441558447265626  L 11.104477609025187 12.801623370916193  L 7.183582080806903 12.801623370916193  L 7.183582080806903 13.441558447265626  L 11.104477609025187 13.441558447265626  Z M 17.425373131413245 12.303409090909092  L 17.835820898437497 12.30340909090909  C 17.956716412080226 12.356006496360084  18.073134325443096 12.443668825461648  18.182089558069027 12.569318181818183  C 18.253731346198695 12.652597405450992  18.316417913362873 12.747564943625711  18.37014925956157 12.85422077636719  L 18.44179104769123 13.020779223632813  L 16.82089552238806 13.020779223632813  C 16.88507462978078 12.845454545454547  16.97014925956157 12.69496753817472  17.07910447178172 12.569318181818183  C 17.14473242613451 12.492065336675862  17.221097056728503 12.424197451955825  17.305970157999067 12.367694810901991  L 17.425373131413245 12.303409090909092  Z M 9.144776125233207 3.407142859996449  L 9.143283585004664 3.4042207763671875  L 3.873134322527985 8.823214280007102  L 7.183582080806903 8.823214280007102  L 7.183582080806903 12.290259734552556  L 11.104477609025187 12.290259734552556  L 11.104477609025187 8.821753238192471  L 14.413432827075557 8.821753238192471  L 9.144776125233207 3.407142859996449  Z M 16.716417910447763 10.745941552734374  L 18.543283579174442 10.745941552734374  C 18.543283579174442 10.938798692737926  18.513432835820893 11.121428560014206  18.458208949393654 11.293831174538353  L 18.391044781949628 11.463311685458095  L 16.868656707672578 11.463311685458095  C 16.79278828944823 11.296086482852044  16.744912261940303 11.117996978927856  16.726865671641793 10.935876629083804  L 16.716417910447763 10.745941552734374  Z " fill-rule="nonzero" fill="#3a8eff" stroke="none" transform="matrix(1 0 0 1 1358 3540 )" />
  </g>
</svg>