<?xml version="1.0" encoding="utf-8"?>
<svg version="1.1" xmlns:xlink="http://www.w3.org/1999/xlink" width="16px" height="14px" xmlns="http://www.w3.org/2000/svg">
  <g transform="matrix(1 0 0 1 -1744 -3264 )">
    <path d="M 0.0023441137641293 6.9999996058270195  C 0.0023441137641293 3.156886979084886  3.1193302970786907 0.041066118225794694  6.965174129353234 0.03977272727272727  C 10.437645266125095 0.039955330940977314  13.379739337037668 2.59561702505624  13.863255146144276 6.031818186257102  C 12.797069060038256 5.8953987558857675  11.72800300901094 6.261999310097642  10.970291402363184 7.023863636363635  C 10.314354144574965 7.675314059642784  9.946965750137135 8.562231800069274  9.950248756218905 9.486363629705256  C 9.950248756218905 10.418181813742896  10.311869231965174 11.288636350319605  10.970291402363184 11.946590906871448  C 11.115849331467663 12.092045456764914  11.271641791044775 12.222727266068892  11.436531623134325 12.338636365855823  C 10.183302394361949 13.386234419613965  8.601411060547669 13.960226878554291  6.967518243117364 13.960226878554291  C 3.120758791559599 13.960226878554291  0.0023441137641293 10.844026983910668  0.0023441137641293 6.9999996058270195  Z M 13.43226724191542 7  L 13.433404399875622 7  C 14.097512437810945 7  14.721819465174129 7.257954552112927  15.191471222014926 7.727272733931107  C 15.66226013681592 8.197727281605113  15.92039800995025 8.821590909090908  15.92039800995025 9.48409091352983  C 15.922878598523083 10.143766105364671  15.660749932502792 10.77693022442482  15.192608379975125 11.242045458984375  C 14.721819465174129 11.711363640802555  14.097512437810947 11.969318192915482  13.433404399875622 11.969318177379263  C 12.77333542139132 11.971416021759977  12.139862460140787 11.709531892477669  11.674200419776119 11.242045458984377  C 11.205922730568618 10.777395102864793  10.943398200813913 10.144673306797955  10.945273631840793 9.485227279385654  C 10.945273631840793 8.820454558771306  11.203411520522387 8.196590915749292  11.67306326181592 7.727272733931107  C 12.143852176616914 7.257954552112927  12.768159203980098 7  13.43226724191542 7  Z M 8.460554368781095 11.34999999778054  L 8.460554368781095 10.852272731711647  L 5.473205394900497 10.852272731711647  L 5.473205394900497 11.34999999778054  L 8.460554368781095 11.34999999778054  Z M 14.431840796019902 8.173863629705256  L 14.431840796019902 8.172727279385654  L 12.432693672263682 8.172727279385654  C 12.420583658555088 8.172340258668644  12.408924156397521 8.177333637583686  12.400852876243782 8.186363638583096  L 12.391755503731343 8.201136363636364  L 12.389481172263682 8.219318186257103  L 12.389481172263682 8.3125  C 12.389481172263682 8.326136359197443  12.39289269278607 8.33750000221946  12.400852876243782 8.34659091352983  L 12.41563610074627 8.3556818248402  L 12.432693672263683 8.35909090687145  L 12.563468376865671 8.35909090687145  C 12.563468376865671 8.61249999556108  12.611229570895524 8.836363634144178  12.707889132462688 9.029545456764914  C 12.804548694029851 9.224999995561078  12.92395167910448 9.372727277166193  13.06950959266169 9.476136368075283  C 12.925088837064678 9.57840909312855  12.804548678482586 9.727272725053268  12.707889132462688 9.921590913529833  C 12.633231685639625 10.074491046421732  12.58699402452435 10.239673278148752  12.571428575870646 10.40909090243253  L 12.563468376865671 10.5931818137429  L 12.432693672263682 10.593181813742897  C 12.420763095027857 10.592504944941437  12.409132126426297 10.597071012029913  12.400852876243782 10.605681822620738  L 12.391755503731343 10.620454547674008  L 12.389481172263682 10.639772720614348  L 12.389481172263682 10.732954549893469  C 12.389481172263682 10.74659090909091  12.39289269278607 10.756818186257103  12.400852876243782 10.767045447887075  L 12.41563610074627 10.776136359197446  L 12.432693672263683 10.779545456764916  L 14.431840796019902 10.779545456764916  C 14.444349673507464 10.779545456764916  14.454584219527366 10.775000008877843  14.463681592039803 10.765909097567475  L 14.472778964552239 10.751136356977986  L 14.476190469527365 10.732954549893469  L 14.476190469527365 10.639772720614348  C 14.476805997692487 10.627186252247965  14.472293216332918 10.614887405357068  14.463681592039803 10.605681822620738  L 14.450035541044778 10.59659091131037  L 14.431840796019902 10.5931818137429  L 14.302203264925373 10.5931818137429  C 14.302203264925373 10.339772725053269  14.25330489738806 10.11590908647017  14.156645351368157 9.922727279385654  C 14.075226163191322 9.74607899819255  13.95092001180739 9.592564468039159  13.795024875621891 9.476136368075286  C 13.939445631218904 9.37386364302202  14.061122963308458 9.225000011097302  14.156645351368159 9.03068182262074  C 14.229424315920399 8.884090906871451  14.274911162935323 8.72159091574929  14.293105892412935 8.54318181818182  L 14.302203264925373 8.35909090687145  L 14.431840796019902 8.35909090687145  C 14.444349673507464 8.35909090687145  14.454584219527366 8.354545458984378  14.463681592039803 8.345454547674008  L 14.472778964552239 8.33068182262074  L 14.476190469527365 8.3125  L 14.476190469527365 8.219318186257103  C 14.47680600195716 8.20673171259565  14.472293220298221 8.194432859283928  14.463681592039803 8.185227272727273  C 14.455202130373271 8.177032014235024  14.443597084085056 8.172890296069722  14.431840796019902 8.173863629705256  Z M 8.460554368781095 10.454545458984375  L 8.460554368781095 9.956818177379262  L 5.473205394900497 9.956818177379262  L 5.473205394900497 10.454545458984375  L 8.460554368781095 10.454545458984375  Z M 13.276474766791045 9.569318181818183  L 13.589196874999999 9.569318181818181  C 13.681307742537314 9.610227274946734  13.770007105099502 9.67840908647017  13.85302061567164 9.776136363636365  C 13.907604835199006 9.84090909312855  13.955366029228855 9.914772733931109  13.996304197761194 9.997727270507815  L 14.050888417288556 10.127272729492189  L 12.81592039800995 10.127272729492189  C 12.864818765547263 9.990909090909092  12.92963753109453 9.873863640802558  13.012651026119403 9.776136363636365  C 13.062653277054864 9.71605081741456  13.120835852745525 9.66326468485453  13.185501072761195 9.619318186257104  L 13.276474766791045 9.569318181818183  Z M 6.967448476368158 2.65000000221946  L 6.966311302860697 2.6477272705078128  L 2.9509594838308457 6.8624999955610795  L 5.473205394900497 6.8624999955610795  L 5.473205394900497 9.559090904651988  L 8.460554368781095 9.559090904651988  L 8.460554368781095 6.861363629705255  L 10.981663106343282 6.861363629705255  L 6.967448476368158 2.65000000221946  Z M 12.7363184079602 8.357954541015625  L 14.128216060323384 8.357954541015625  C 14.128216060323384 8.507954538796163  14.10547263681592 8.649999991122161  14.063397294776118 8.784090913529829  L 14.012224595771144 8.91590908868963  L 12.85230987251244 8.91590908868963  C 12.794505363389128 8.785845042218256  12.758028390049756 8.647330983610555  12.744278606965175 8.505681822620737  L 12.7363184079602 8.357954541015625  Z " fill-rule="nonzero" fill="#3a8eff" stroke="none" transform="matrix(1 0 0 1 1744 3264 )" />
  </g>
</svg>