<?xml version="1.0" encoding="utf-8"?>
<svg version="1.1" xmlns:xlink="http://www.w3.org/1999/xlink" width="18px" height="20px" xmlns="http://www.w3.org/2000/svg">
  <g transform="matrix(1 0 0 1 -1353 -3267 )">
    <path d="M 17.924739616624944 15.124994415315655  C 17.924739616624944 14.912640396338466  17.837252788627403 14.709740321259126  17.683018867924527 14.564393931995738  C 17.35969028111617 14.26269285078469  16.85917763604185 14.26269285078469  16.53584904923349 14.564393931995738  L 13.81886791715802 17.261363636363637  L 11.103773592275946 14.565340909090912  C 11.05283019604953 14.514204545454547  11.003773584905662 14.482007568359377  10.971698105837264 14.461174249822442  C 10.739622634139153 14.305871226917615  10.399999992629718 14.297348499644883  10.218867917158018 14.388257568359371  C 10.120427005439689 14.429511712379977  10.030763235179384 14.489299692395612  9.954716988502359 14.564393931995738  L 6.668867931898584 17.82575756835937  C 6.517754664281804 17.97649686194452  6.432780409177457 18.181512054076954  6.432780409177457 18.39535984108665  C 6.432780409177457 18.609207628096343  6.5177546642818065 18.81422282022878  6.668867931898584 18.964962113813918  C 6.989622656249999 19.28314393199574  7.541509448702829 19.258522727272727  7.807547162441037 18.964962113813918  L 10.52358491303066 16.26799243164062  L 13.239622641509431 18.964962113813918  C 13.394339615271225 19.12026513671875  13.591509441332544 19.20170454545454  13.808490566037731 19.20170454545454  C 13.852830181308956 19.20170454545454  13.919811328124997 19.20170454545454  13.959433969634432 19.1875  C 14.117281137599681 19.156104300003058  14.262544887423237 19.079082912720956  14.377358490566035 18.965909090909086  L 17.65000000737028 15.71496211381392  C 17.82411771843617 15.568864302126336  17.924739616624944 15.352791818606386  17.924739616624944 15.124994415315655  Z M 9.250000007370284 11.601325750177555  C 12.414150950766512 11.568181818181817  14.987735863797173 8.978219682173293  14.98773584168632 5.827651522549715  C 14.97641508696934 2.6553030229048296  12.364150936025943 0.07575756835937505  9.162264158313679 0.07575756835937505  C 5.96320754716981 0.07575756835937505  3.360377365860849 2.665719682173295  3.360377365860849 5.8484848410866475  C 3.361108641494724 7.800942106808034  4.353327887267421 9.618333585792268  5.992452837558962 10.669507568359373  C 2.4386792379127353 11.985795454545453  0 15.423295454545453  0 19.202651522549715  C 0 19.628787886186082  0.3358490492334907 19.962121226917617  0.7641509433962264 19.96212120472301  C 1.192452837558962 19.96212120472301  1.5283018867924527 19.628787863991477  1.5283018867924527 19.202651522549715  C 1.5283018867924527 15.017045454545455  4.939622648879717 11.611742431640623  9.13207546432783 11.611742431640623  C 9.154716973761792 11.611742431640623  9.182075456957548 11.608901522549715  9.250000007370284 11.602272727272728  Z M 4.8877358490566065 5.839015158913352  C 4.8877358490566065 3.4981060680042613  6.805660369988211 1.5937499999999993  9.16226415831368 1.5937499999999991  C 11.519811328125002 1.5937499999999991  13.436792467570756 3.49715909090909  13.43679244545991 5.839015158913352  C 13.43679244545991 8.178977272727273  11.519811306014153 10.083333340731533  9.163207539799531 10.083333340731533  C 6.805660369988209 10.083333340731533  4.8877358490566065 8.179924249822442  4.8877358490566065 5.839015158913352  Z " fill-rule="nonzero" fill="#3a8eff" stroke="none" transform="matrix(1 0 0 1 1353 3267 )" />
  </g>
</svg>