<?xml version="1.0" encoding="utf-8"?>
<svg version="1.1" xmlns:xlink="http://www.w3.org/1999/xlink" width="17px" height="15px" xmlns="http://www.w3.org/2000/svg">
  <g transform="matrix(1 0 0 1 -1536 -2841 )">
    <path d="M 16.94481985862038 6.843727737991898  C 16.94481985862038 4.149942997685185  15.552961271528762 1.640403736255787  13.221504504394533 0.13063105830439842  C 12.951812347966975 -0.04395428240740746  12.585459612482243 0.02398113787615757  12.403431893643466 0.2825095666956018  C 12.22121112504439 0.5409454571759258  12.292176635742186 0.8921332826967596  12.561868792169744 1.0667186053240734  C 14.568382233220882 2.3661338975694446  15.766340475186436 4.525762261284722  15.766340475186436 6.843727719907406  C 15.766340475186436 10.494622775607638  12.820692169744317 13.4964949182581  9.088284102006394 13.78522507957176  L 9.088284102006392 9.309333821614583  C 10.026569532359732 9.060983687789353  10.718483379572088 8.237560492621528  10.718483379572088 7.260204607928239  C 10.718483379572088 6.087018554687498  9.722900429465554 5.132647099247683  8.499054069380326 5.132647099247683  C 7.275207709295098 5.132647099247683  6.279528224875711 6.087018554687498  6.279528224875711 7.260204607928239  C 6.279528224875711 8.237578993055553  6.971499970037287 9.06098368778935  7.90982401788885 9.309333821614583  L 7.90982401788885 13.785225097656248  C 4.177415931285511 13.496494936342593  1.231767625843395 10.494622793692129  1.231767625843395 6.843727737991898  C 1.231767625843395 4.52578077980324  2.4297065684925423 2.3661339156539354  4.4361427934126425 1.066718623408565  C 4.705834949840199 0.8921332826967596  4.776800460537996 0.5409454752604171  4.594579691938921 0.282509584780093  C 4.412455438787287 0.023981155960648506  4.046102703302557 -0.04395426432291619  3.7765070811878547 0.13063107638888935  C 1.4451661288174715 1.640403736255787  0.053288242409446 4.149942997685185  0.053288242409446 6.843727737991898  C 0.053288242409446 11.307904730902777  3.8420092629172586 14.93979416232639  8.499054050514916 14.93979416232639  C 13.156098838112571 14.93979416232639  16.94481985862038 11.307904730902777  16.94481985862038 6.843727737991898  Z M 8.499054050514916 8.258139123987268  C 7.9250557062322455 8.258139123987268  7.458007608309659 7.810424153645833  7.458007608309659 7.260186107494213  C 7.458007608309659 6.709948061342592  7.925055725097655 6.262325611255788  8.499054050514916 6.262325611255788  C 9.073052375932175 6.262325611255788  9.540003977272729 6.709948043258104  9.540003977272729 7.260186107494213  C 9.540003977272729 7.810424153645833  9.073052394797587 8.258139123987268  8.499054050514916 8.258139123987268  Z " fill-rule="nonzero" fill="#6baaff" stroke="none" transform="matrix(1 0 0 1 1536 2841 )" />
  </g>
</svg>