<?xml version="1.0" encoding="utf-8"?>
<svg version="1.1" xmlns:xlink="http://www.w3.org/1999/xlink" width="19px" height="19px" xmlns="http://www.w3.org/2000/svg">
  <g transform="matrix(1 0 0 1 -350 -2838 )">
    <path d="M 18.941715218926554 13.104612886235959  L 18.939618644067796 4.421436095505618  C 18.939618644067796 4.119140624999999  18.851562499999996 3.8439475070224716  18.677546786723163 3.595856741573034  C 18.50353107344633 3.3477659761235947  18.272907838983052 3.170558286516853  17.983580508474578 3.064233672752809  L 9.978857697740112 0.17053634129213482  C 9.811131709039548 0.11007724719101124  9.64550229519774 0.08089009831460674  9.477776306497177 0.08089009831460674  C 9.310050317796609 0.08089009831460674  9.144420903954803 0.11007724719101124  8.976694915254237 0.17053634129213482  L 0.9740686793785311 3.064233672752809  C 0.6868379237288136 3.170558286516854  0.4541181144067796 3.3477659761235956  0.28010240112994367 3.595856741573034  C 0.10608668785310772 3.8439475070224716  0.018030543785310923 4.119140625  0.018030543785310923 4.4214360955056184  L 0.018030543785310923 13.104612886235959  C 0.018030543785310923 13.369382022471914  0.08721751412429397 13.61330319522472  0.22349487994350303 13.840545997191011  C 0.35977224576271205 14.065704002808989  0.5463674081920908 14.242911692415731  0.7811837923728817 14.372169066011235  L 8.785906603107344 18.71271506320225  C 8.997660663841808 18.833633251404496  9.23038047316384 18.894092345505623  9.479872881355933 18.894092345505623  C 9.729365289548022 18.894092345505623  9.962085098870057 18.833633251404496  10.17383915960452 18.71271506320225  L 18.178561970338983 14.372169066011235  C 18.413378354519775 14.244996488764045  18.599973516949152 14.067788799157302  18.73625088276836 13.840545997191011  C 18.87252824858757 13.615387991573035  18.941715218926554 13.36938202247191  18.941715218926554 13.104612886235959  Z M 17.41540872175141 4.398503335674158  L 9.479872881355933 7.269267907303371  L 1.544337040960452 4.398503335674158  L 9.479872881355933 1.5277387640449442  L 17.41540872175141 4.398503335674158  Z M 17.484595692090394 5.9120654845505625  L 17.484595692090398 13.10252808988764  L 10.207384357344631 17.04904757724719  L 10.207384357344631 8.547248068820226  L 17.484595692090394 5.9120654845505625  Z " fill-rule="nonzero" fill="#6baaff" stroke="none" transform="matrix(1 0 0 1 350 2838 )" />
  </g>
</svg>