<?xml version="1.0" encoding="utf-8"?>
<svg version="1.1" xmlns:xlink="http://www.w3.org/1999/xlink" width="16px" height="16px" xmlns="http://www.w3.org/2000/svg">
  <g transform="matrix(1 0 0 1 -945 -2840 )">
    <path d="M 7.698966346153846 3.6192548076923075  C 7.698990384615383 1.6290144230769223  6.079807692307693 0.009831730769230244  4.089543269230769 0.009831730769231118  L 3.6164182692307683 0.009831730769231118  C 1.626177884615384 0.009831730769231118  0.006995192307691958 1.6290144230769232  0.006995192307691958 3.6192548076923075  L 0.006995192307691958 4.092379807692307  C 0.006995192307691958 6.082620192307692  1.626177884615384 7.701802884615384  3.6164182692307683 7.701802884615384  L 4.089543269230769 7.701802884615384  C 6.079783653846152 7.701802884615384  7.698966346153846 6.082620192307692  7.698966346153846 4.092379807692307  L 7.698966346153846 3.6192548076923075  Z M 6.737451923076923 3.6192548076923075  L 6.737451923076923 4.092379807692307  C 6.737451923076923 5.552427884615384  5.549615384615385 6.740264423076923  4.089567307692309 6.740264423076923  L 3.6164423076923082 6.740264423076923  C 2.1563942307692314 6.740264423076923  0.9685576923076925 5.552427884615384  0.9685576923076925 4.092379807692307  L 0.9685576923076925 3.6192548076923075  C 0.9685576923076925 2.1592067307692298  2.1563942307692314 0.9713701923076918  3.6164423076923082 0.9713701923076918  L 4.089567307692309 0.9713701923076918  C 5.549615384615385 0.9713701923076918  6.737451923076923 2.1592067307692298  6.737451923076923 3.6192548076923075  Z M 7.698966346153846 11.907620192307691  C 7.698990384615383 9.917403846153846  6.079807692307693 8.298197115384616  4.089543269230769 8.298197115384616  L 3.6164182692307683 8.298197115384616  C 1.626177884615384 8.298197115384616  0.006995192307691958 9.917379807692305  0.006995192307691958 11.907620192307691  L 0.006995192307691958 12.380745192307694  C 0.006995192307691958 14.370985576923077  1.626177884615384 15.99016826923077  3.6164182692307683 15.99016826923077  L 4.089543269230769 15.99016826923077  C 6.079783653846152 15.99016826923077  7.698966346153846 14.370985576923081  7.698966346153846 12.380745192307694  L 7.698966346153846 11.907620192307691  Z M 6.737451923076923 11.907620192307691  L 6.737451923076923 12.380745192307694  C 6.737451923076923 13.840793269230772  5.549615384615385 15.02862980769231  4.089567307692309 15.02862980769231  L 3.6164423076923082 15.02862980769231  C 2.1563942307692314 15.02862980769231  0.9685576923076925 13.840793269230772  0.9685576923076925 12.380745192307694  L 0.9685576923076925 11.907620192307691  C 0.9685576923076925 10.447572115384615  2.1563942307692314 9.259735576923077  3.6164423076923082 9.259735576923077  L 4.089567307692309 9.259735576923077  C 5.549615384615385 9.259735576923077  6.737451923076923 10.447572115384615  6.737451923076923 11.907620192307691  Z M 9.431730769230768 6.395408653846154  L 9.607403846153847 6.571081730769232  C 10.285769230769233 7.2494471153846165  11.187668269230771 7.623028846153847  12.146995192307696 7.623028846153847  C 13.10632211538462 7.623028846153847  14.008245192307694 7.2494471153846165  14.68658653846154 6.571081730769232  L 14.86225961538462 6.395408653846154  C 16.26259615384616 4.995072115384615  16.26259615384616 2.7165384615384625  14.86225961538462 1.3162259615384615  L 14.68658653846154 1.1405528846153847  C 14.008221153846156 0.4622115384615392  13.10632211538462 0.08862980769230874  12.146995192307696 0.08862980769230874  C 11.187668269230771 0.08862980769230874  10.285745192307695 0.4622115384615392  9.607403846153847 1.1405528846153847  L 9.43175480769231 1.3162259615384615  C 8.753389423076923 1.994567307692309  8.379783653846152 2.896490384615385  8.379783653846152 3.8558173076923086  C 8.379783653846152 4.815144230769232  8.753389423076923 5.717067307692307  9.431730769230768 6.395408653846154  Z M 9.341346153846152 3.855817307692307  C 9.341346153846152 3.1533173076923076  9.614927884615383 2.492860576923076  10.111682692307692 1.996129807692308  L 10.287331730769232 1.820456730769232  C 10.784086538461537 1.3237259615384627  11.44454326923077 1.0501682692307703  12.147019230769232 1.0501682692307703  C 12.849495192307694 1.0501682692307703  13.509951923076926 1.3237259615384627  14.006706730769233 1.820456730769232  L 14.18237980769231 1.996129807692308  C 15.207788461538467 3.0215625000000013  15.207788461538467 4.690072115384616  14.18237980769231 5.715504807692308  L 14.006706730769233 5.891177884615385  C 13.509951923076928 6.387932692307693  12.849495192307694 6.6614903846153855  12.147019230769232 6.6614903846153855  C 11.44454326923077 6.6614903846153855  10.78408653846154 6.387932692307693  10.287355769230771 5.891177884615385  L 10.111682692307696 5.715504807692308  C 9.614927884615385 5.21875  9.341346153846152 4.558317307692309  9.341346153846152 3.855817307692307  Z M 15.992980769230769 11.907620192307691  C 15.993004807692307 9.917403846153846  14.37379807692308 8.298197115384616  12.383557692307694 8.298197115384616  L 11.91043269230769 8.298197115384616  C 9.920192307692307 8.298197115384616  8.301009615384615 9.917379807692305  8.301009615384615 11.907620192307691  L 8.301009615384615 12.380745192307694  C 8.301009615384615 14.370985576923077  9.920192307692304 15.99016826923077  11.91043269230769 15.99016826923077  L 12.383557692307694 15.99016826923077  C 14.373798076923077 15.99016826923077  15.992980769230769 14.370985576923081  15.992980769230769 12.380745192307694  L 15.992980769230769 11.907620192307691  Z M 15.031466346153845 11.907620192307691  L 15.031466346153845 12.380745192307694  C 15.031466346153845 13.840793269230772  13.843629807692308 15.02862980769231  12.38358173076923 15.02862980769231  L 11.91045673076923 15.02862980769231  C 10.450408653846152 15.02862980769231  9.262572115384613 13.840793269230772  9.262572115384613 12.380745192307694  L 9.262572115384613 11.907620192307691  C 9.262572115384613 10.447572115384615  10.450408653846152 9.259735576923077  11.91045673076923 9.259735576923077  L 12.38358173076923 9.259735576923077  C 13.843629807692308 9.259735576923077  15.031466346153845 10.447572115384615  15.031466346153845 11.907620192307691  Z " fill-rule="nonzero" fill="#6baaff" stroke="none" transform="matrix(1 0 0 1 945 2840 )" />
  </g>
</svg>