<?xml version="1.0" encoding="utf-8"?>
<svg version="1.1" xmlns:xlink="http://www.w3.org/1999/xlink" width="22px" height="22px" xmlns="http://www.w3.org/2000/svg">
  <g transform="matrix(1 0 0 1 -935 -3537 )">
    <path d="M 0.12397790055248441 11.766961325966848  C -0.005371233154678112 6.402877575413193  3.98159468554573 1.827359544904631  9.31292817679558 1.2215469613259664  C 9.35007718458194 1.2175958157367333  9.387409475784228 1.2156160790943331  9.424768013375765 1.2156160790943331  C 10.008786251594627 1.2156160790943331  10.482226576911678 1.689056404411383  10.482226576911678 2.2730746426302444  C 10.482226576911678 2.2750516150345255  10.482221032836444 2.277028583552264  10.48220994475138 2.279005524861878  L 10.48220994475138 10.456685082872927  C 10.48220994475138 11.043756906077348  10.956243093922652 11.517790055248618  11.54331491712707 11.517790055248618  L 19.72099447513812 11.517790055248618  C 20.34939226519337 11.517790055248618  20.84773480662983 12.061104972375688  20.778453038674034 12.68707182320442  C 20.17318735997106 18.018692518294895  15.597332096597071 22.005952291359367  10.233038674033146 21.87602209944751  C 4.736685082872927 21.74596685082873  0.2540331491712694 17.263314917127072  0.12397790055248441 11.766961325966848  Z M 12.301767955801107 0.007292817679557855  L 12.1692817679558 0  L 12.301767955801102 0.007292817679558286  C 17.394587970925265 0.5868967300523548  21.41310326994765 4.605412029074734  21.99270718232044 9.698232044198896  C 21.996842198883215 9.737399903423066  21.998914000874457 9.776758163498279  21.998914000874457 9.816143688227282  C 21.998914000874457 10.436411334335588  21.49608772433083 10.939237610879216  20.875820078222525 10.939237610879216  C 20.87415628908027 10.939237610879216  20.87249250199264 10.939233913689357  20.870828729281765 10.939226519337018  L 11.305082872928173 10.939226519337018  C 11.304677719549488 10.939228545129266  11.304272561739124 10.939229558030137  11.303867403295925 10.939229558030137  C 11.169610337038717 10.939229558030137  11.060773480643991 10.830392701635414  11.060773480643991 10.696135635378203  L 11.060773480662984 1.129171270718232  C 11.060773480662984 0.4606629834254143  11.63812154696133 -0.06806629834254171  12.301767955801107 0.007292817679557855  Z " fill-rule="nonzero" fill="#94beff" stroke="none" transform="matrix(1 0 0 1 935 3537 )" />
  </g>
</svg>